<svg width="346" height="341" viewBox="0 0 346 341" fill="none" xmlns="http://www.w3.org/2000/svg">
<path opacity="0.1" fill-rule="evenodd" clip-rule="evenodd" d="M109.204 42.7013C99.5858 38.8378 88.7121 44.0645 84.917 54.3753C81.122 64.6862 85.8427 76.1768 95.461 80.0403C105.079 83.9037 115.953 78.6771 119.748 68.3662C123.543 58.0553 118.822 46.5647 109.204 42.7013ZM71.201 48.8659C77.9849 30.4344 97.4225 21.0914 114.616 27.9976C131.809 34.9038 140.248 55.4441 133.464 73.8756C126.68 92.3071 107.243 101.65 90.0491 94.7439C72.8556 87.8377 64.417 67.2974 71.201 48.8659Z" fill="black" stroke="black" stroke-width="16" stroke-linecap="round" stroke-linejoin="bevel"/>
<path opacity="0.1" fill-rule="evenodd" clip-rule="evenodd" d="M31.7846 41.94C35.5185 40.1522 39.8632 41.8974 41.4888 45.838L53.2118 74.2566L80.1403 61.3634C83.8742 59.5756 88.2189 61.3208 89.8445 65.2613C91.47 69.2019 89.7608 73.8457 86.0269 75.6335L59.0984 88.5268L70.8215 116.945C72.447 120.886 70.7378 125.53 67.0039 127.318C63.2699 129.105 58.9252 127.36 57.2997 123.42L45.5766 95.001L18.6482 107.894C14.9142 109.682 10.5695 107.937 8.94398 103.996C7.31844 100.056 9.02764 95.4119 12.7616 93.6241L39.69 80.7308L27.967 52.3122C26.3414 48.3716 28.0506 43.7278 31.7846 41.94Z" fill="black" stroke="black" stroke-width="16" stroke-linecap="round" stroke-linejoin="bevel"/>
<path opacity="0.1" fill-rule="evenodd" clip-rule="evenodd" d="M221.802 69.7779C228.449 61.5512 240.388 60.6579 248.469 67.7827C256.55 74.9076 257.713 87.3525 251.067 95.5793C244.42 103.806 232.481 104.699 224.4 97.5745C216.319 90.4497 215.156 78.0047 221.802 69.7779ZM257.947 56.051C243.501 43.3148 222.159 44.9116 210.278 59.6177C198.398 74.3237 200.477 96.57 214.922 109.306C229.368 122.042 250.71 120.446 262.591 105.74C274.471 91.0336 272.392 68.7872 257.947 56.051Z" fill="black" stroke="black" stroke-width="16" stroke-linecap="round" stroke-linejoin="bevel"/>
<path opacity="0.1" fill-rule="evenodd" clip-rule="evenodd" d="M289.291 30.1419C285.195 30.4548 282.192 34.1709 282.586 38.4421L285.42 69.2453L255.877 71.5017C251.781 71.8146 248.779 75.5307 249.172 79.8019C249.565 84.0731 253.204 87.282 257.301 86.9691L286.844 84.7127L289.679 115.516C290.072 119.787 293.711 122.996 297.808 122.683C301.904 122.37 304.907 118.654 304.514 114.383L301.679 83.5796L331.222 81.3232C335.318 81.0103 338.321 77.2942 337.928 73.023C337.534 68.7518 333.895 65.5429 329.798 65.8558L300.255 68.1122L297.42 37.3091C297.027 33.0379 293.388 29.829 289.291 30.1419Z" fill="black" stroke="black" stroke-width="16" stroke-linecap="round" stroke-linejoin="bevel"/>
<path opacity="0.1" fill-rule="evenodd" clip-rule="evenodd" d="M81.2197 216.698C71.5701 220.476 66.7554 231.924 70.4659 242.268C74.1764 252.612 85.0068 257.936 94.6565 254.159C104.306 250.381 109.121 238.933 105.41 228.589C101.7 218.245 90.8693 212.921 81.2197 216.698ZM56.7052 247.655C50.0725 229.163 58.679 208.699 75.9284 201.947C93.1778 195.194 112.538 204.711 119.171 223.202C125.804 241.694 117.197 262.158 99.9477 268.91C82.6983 275.663 63.3379 266.146 56.7052 247.655Z" fill="black" stroke="black" stroke-width="16" stroke-linecap="round" stroke-linejoin="bevel"/>
<path opacity="0.1" fill-rule="evenodd" clip-rule="evenodd" d="M22.8182 269.797C24.4759 265.872 28.8348 264.165 32.5539 265.986L59.3758 279.12L71.3312 250.807C72.9889 246.881 77.3478 245.175 81.0669 246.996C84.7861 248.817 86.4572 253.476 84.7995 257.402L72.8441 285.715L99.666 298.848C103.385 300.669 105.056 305.328 103.398 309.254C101.741 313.18 97.3819 314.886 93.6627 313.065L66.8408 299.932L54.8855 328.245C53.2277 332.17 48.8689 333.877 45.1497 332.056C41.4305 330.235 39.7594 325.576 41.4172 321.65L53.3726 293.337L26.5507 280.203C22.8315 278.382 21.1604 273.723 22.8182 269.797Z" fill="black" stroke="black" stroke-width="16" stroke-linecap="round" stroke-linejoin="bevel"/>
<path opacity="0.1" fill-rule="evenodd" clip-rule="evenodd" d="M290.138 304.303C279.947 305.902 270.413 298.343 268.842 287.419C267.271 276.495 274.258 266.342 284.448 264.743C294.639 263.143 304.173 270.703 305.745 281.627C307.316 292.551 300.328 302.703 290.138 304.303ZM254.31 289.7C257.118 309.228 274.162 322.74 292.378 319.881C310.595 317.022 323.085 298.874 320.276 279.346C317.468 259.818 300.424 246.305 282.208 249.164C263.992 252.024 251.501 270.172 254.31 289.7Z" fill="black" stroke="black" stroke-width="16" stroke-linecap="round" stroke-linejoin="bevel"/>
<path opacity="0.1" fill-rule="evenodd" clip-rule="evenodd" d="M214.392 287.558C217.668 290.147 222.271 289.425 224.674 285.944L242.002 260.846L265.624 279.517C268.9 282.106 273.503 281.384 275.906 277.903C278.308 274.423 277.601 269.503 274.325 266.914L250.703 248.243L268.03 223.145C270.433 219.665 269.726 214.745 266.45 212.156C263.174 209.567 258.571 210.289 256.169 213.77L238.841 238.868L215.218 220.197C211.942 217.608 207.339 218.33 204.936 221.811C202.534 225.291 203.241 230.211 206.517 232.8L230.14 251.471L212.812 276.569C210.409 280.049 211.117 284.969 214.392 287.558Z" fill="black" stroke="black" stroke-width="16" stroke-linecap="round" stroke-linejoin="bevel"/>
</svg>
